<svg width="96" height="16" viewBox="0 0 96 16" fill="none" xmlns="http://www.w3.org/2000/svg">
<path d="M81.543 14.8544V12.0734H73.5209V8.86457H79.9386V6.08356H73.5209V3.51647H80.9012V0.628503H70.6329V14.8544H81.543ZM85.6076 0.628503V14.8544H95.9829V12.0734H88.4955V0.628503H85.6076ZM17.7937 0.628503V14.8544H20.6817V8.86457H27.4203V14.8544H30.2018V0.628503H27.4203V6.08356H20.6817V0.628503H17.7937ZM46.5665 14.8544H49.6684L43.1437 0.628503H39.4L32.9823 14.8544H35.9777L37.4747 11.6456H45.0695L46.5665 14.8544ZM52.4498 0.628503V14.8544H55.3378V4.58609L63.0386 14.8544H65.2848V0.628503H62.3968V9.18545L55.9796 0.628503H52.4498ZM11.5899 10.0411C11.2027 10.7841 10.6188 11.4064 9.90207 11.8402C9.18532 12.274 8.3632 12.5027 7.52539 12.5013C4.93513 12.499 2.84492 10.4093 2.81907 7.79495C2.84492 5.25327 4.93513 3.16305 7.52539 3.19559C9.28536 3.16305 10.8274 4.15111 11.5899 5.65571L14.157 4.26521C12.8414 1.91517 10.363 0.326781 7.52539 0.307617C3.36903 0.326781 0.00909514 3.68672 0.038064 7.79495C0.00864946 11.9758 3.36859 15.3353 7.52539 15.2823C10.3706 15.3353 12.8548 13.7385 14.157 11.4317L11.5899 10.0411Z" fill="#121314"/>
<path d="M43.8924 8.75761H38.7583L41.3258 3.08863L43.8924 8.75761Z" fill="white"/>
</svg>
