<svg width="80" height="14" viewBox="0 0 80 14" fill="none" xmlns="http://www.w3.org/2000/svg">
<path fill-rule="evenodd" clip-rule="evenodd" d="M77.0769 0.991943H79.8873C79.576 1.23349 79.3893 1.52933 79.3893 1.93423V11.6116C79.3893 12.016 79.584 12.3044 79.8873 12.5454H77.0769C77.3802 12.3044 77.5669 12.0086 77.5669 11.6116V1.93373C77.5674 1.52883 77.3881 1.23299 77.0769 0.991943ZM11.9384 5.14907C11.4792 4.16047 10.9732 3.1873 10.1245 2.47909C9.22156 1.71609 8.07657 1.2569 6.89323 1.2569C3.74812 1.2569 2.33867 4.09821 2.33867 6.89321C2.33867 9.59507 3.68586 12.3273 6.72191 12.3273C7.95953 12.3273 9.16678 11.7904 9.92928 10.8168V8.63684C9.92928 8.04517 9.73454 7.66417 9.27535 7.31405H12.4907C12.148 7.70302 11.9384 8.09995 11.9384 8.63684V10.8168C10.4667 12.1874 8.63736 13.0276 6.60537 13.0276C3.0165 13.0276 0.0810547 10.3884 0.0810547 6.71391C0.0810547 3.06279 2.97715 0.563629 6.5197 0.563629C8.72303 0.563629 10.5055 1.37344 11.9384 3.00054V5.14907ZM19.8168 0.991943H22.8454C22.4325 1.29525 22.2926 1.6379 22.2926 2.14391V9.2056C22.2926 11.1435 24.5656 12.0937 26.2321 12.0937C27.8671 12.0937 30.0002 11.1365 30.0002 9.24445V2.14391C30.0002 1.66878 29.8832 1.34206 29.5645 0.991943H31.215C30.8803 1.33459 30.7558 1.67675 30.7558 2.14391V9.24445C30.7558 11.7979 27.7431 12.7785 25.6564 12.7785C23.5078 12.7785 20.3702 11.8293 20.3702 9.2056V2.14391C20.3697 1.66131 20.1749 1.30322 19.8168 0.991943ZM50.1479 5.18792C49.7435 4.16794 49.2684 3.27296 48.4352 2.53337C47.5402 1.739 46.45 1.24096 45.2437 1.24096C42.13 1.24096 40.5338 3.96573 40.5338 6.79211C40.5338 9.63342 42.1922 12.3193 45.2671 12.3193C47.5561 12.3193 49.1912 10.7077 50.1484 8.76882V10.871C48.7245 12.2805 46.8868 12.9967 44.8782 12.9967C41.1563 12.9967 38.3693 10.5911 38.3693 6.75326C38.3693 3.02444 41.0473 0.572099 44.6989 0.572099C46.7229 0.572099 48.6842 1.27284 50.1479 2.66635V5.18792ZM69.6735 5.18792C69.2691 4.16794 68.793 3.27296 67.9608 2.53337C67.0658 1.739 65.9756 1.24096 64.7693 1.24096C61.6546 1.24096 60.0664 3.96573 60.0664 6.79211C60.0664 9.63342 61.7169 12.3193 64.7927 12.3193C67.0817 12.3193 68.7238 10.7077 69.674 8.76882V10.871C68.2491 12.2805 66.4193 12.9967 64.4038 12.9967C60.6819 12.9967 57.8954 10.5911 57.8954 6.75326C57.8954 3.02444 60.5734 0.572099 64.224 0.572099C66.248 0.572099 68.2103 1.27284 69.674 2.66635L69.6735 5.18792Z" fill="#121314"/>
</svg>
