<svg width="96" height="56" viewBox="0 0 96 56" fill="none" xmlns="http://www.w3.org/2000/svg">
<path fill-rule="evenodd" clip-rule="evenodd" d="M0 27.6482H5.76754V29.7455H3.9845V33.2578H10.4854V29.7455H8.65054V27.6482H14.5222V29.7455H12.6351V40.0734H14.5222V42.118H8.65054V40.0734H10.4854V35.3023H3.9845V40.0734H5.76754V42.118H0V40.0734H1.83534V29.7455H0V27.6482ZM68.9928 27.6482H80.8418V31.6855H78.8494V29.7455H73.0823V33.206H78.01V35.25H73.0823V40.0734H78.7969V37.2951H80.8932V42.118H68.9928V40.0734H70.9326V29.7455H68.9928V27.6482ZM17.196 27.6482H29.0967V31.6855H27.0521V29.7455H21.2851V33.206H26.2132V35.25H21.2851V40.0734H26.9998V37.2951H29.0967V42.118H17.196V40.0734H19.1359V29.7455H17.196V27.6482ZM72.4533 25.7087H76.6997L77.7483 26.9666H73.607L72.4533 25.7087ZM92.4796 33.8347C91.0115 33.467 90.0156 33.5203 88.4953 33.0485C87.1842 32.5767 86.9228 31.7896 86.9228 31.2655C86.9228 30.6886 87.4989 29.2732 89.5961 29.2732C91.6936 29.2732 93.1091 30.6886 93.1617 31.8942H95.2058V27.6482H93.2135V28.5927L93.3186 28.8543C93.2652 28.8543 93.2135 28.6969 93.0035 28.5399V28.4876C92.4274 27.963 91.2215 27.3338 89.4387 27.3338C87.2898 27.3338 84.7731 28.6969 84.7731 31.2655C84.7731 33.7824 86.5551 34.6208 88.1288 35.0403C89.649 35.4598 90.4351 35.4598 91.7454 35.8264C93.0035 36.1408 93.8429 36.9269 93.8429 38.0807C93.8429 39.1294 93.1617 40.5447 90.4351 40.5447C87.7611 40.5447 86.6603 39.0766 86.3456 37.032H84.4054V42.1172H86.3978V41.1734L86.3456 40.9108C86.3456 40.9108 86.3978 41.0682 86.6599 41.2252V41.2785C87.6551 42.0646 89.0188 42.5889 90.696 42.5889C92.6362 42.5889 95.9397 41.5933 95.9397 38.133C95.94 35.6177 94.6289 34.4639 92.4796 33.8347ZM64.3273 40.0734V29.7455H66.2666V27.6482H61.0242L57.5116 36.1413L57.4598 36.5613L57.3546 36.1413L53.8942 27.6482H48.5992V29.7455H50.5389V40.0734H48.5992V42.118H54.5228V40.0734H52.6879V29.9548L52.8464 30.4276L56.8825 40.0734H58.0367L62.0728 30.4276L62.1779 29.9025L62.2301 30.4794V40.0734H60.3947V42.118H66.2666V40.0734H64.3273ZM22.0718 22.0914H20.0795V21.5673H21.5477C21.6 21.6719 21.9143 21.934 22.0718 22.0914ZM72.1389 22.0914C72.1389 21.8816 72.3481 21.6719 72.6106 21.5673H73.6592V22.0914H72.1389ZM39.2149 22.458C38.3237 22.8775 37.2227 22.8252 36.3314 22.458H25.8988C25.4005 22.6657 24.866 22.7726 24.3261 22.7726C23.7862 22.7726 23.2516 22.6657 22.7533 22.458H20.0795V23.4539H73.6592V22.458H39.2149ZM26.5281 22.0914C26.6855 21.9863 27.0521 21.6196 27.1044 21.5673H35.1781C35.2827 21.7247 35.5453 21.9868 35.7022 22.0914H26.5281ZM37.7996 21.7765C39.1626 21.7765 40.3158 20.6232 40.3158 19.2601C40.3158 17.8448 39.1626 16.691 37.7996 16.691C37.1186 16.6922 36.4659 16.9633 35.9844 17.4448C35.503 17.9264 35.232 18.5792 35.2309 19.2601C35.2309 20.6232 36.3842 21.7765 37.7996 21.7765V22.3006C36.0694 22.3006 34.7063 20.9375 34.7063 19.2601C34.7063 17.5299 36.0694 16.1669 37.7996 16.1669C39.477 16.1669 40.8401 17.5299 40.8401 19.2601C40.8393 20.0664 40.519 20.8394 39.9489 21.4095C39.3788 21.9795 38.6058 22.3 37.7996 22.3006V21.7765ZM27.786 18.8412C27.786 16.9535 26.2132 15.3808 24.3261 15.3808C22.3861 15.3808 20.8656 16.9535 20.8656 18.8412C20.8656 20.7812 22.3861 22.3011 24.3261 22.3011C26.2132 22.3011 27.786 20.7806 27.786 18.8412H27.2091C27.2091 20.4663 25.8983 21.777 24.3255 21.777C23.9398 21.7776 23.5578 21.7021 23.2013 21.5548C22.8449 21.4075 22.521 21.1912 22.2483 20.9185C21.9755 20.6457 21.7593 20.3219 21.612 19.9654C21.4646 19.609 21.3891 19.2269 21.3897 18.8412C21.3897 17.2161 22.7005 15.9577 24.3255 15.9577C24.7045 15.9566 25.08 16.0304 25.4303 16.175C25.7807 16.3195 26.0989 16.5319 26.3669 16.7998C26.6349 17.0678 26.8472 17.3861 26.9918 17.7364C27.1363 18.0868 27.2102 18.4622 27.2091 18.8412H27.786Z" fill="#121314"/>
<path fill-rule="evenodd" clip-rule="evenodd" d="M39.4247 20.9904L38.3765 19.7842V19.7319C38.4293 19.6796 38.4293 19.6268 38.4811 19.5745L40.054 19.994C40.1062 19.994 40.2114 20.0463 40.2114 20.0986C40.2114 20.0463 40.264 19.8365 40.3158 19.7319C40.2636 19.7842 40.1584 19.7842 40.054 19.7842L38.5862 19.3653C38.5334 19.3653 38.5334 19.3125 38.5334 19.3125V19.0499L40.054 18.473C40.054 18.473 40.2114 18.473 40.2114 18.5253C40.2114 18.473 40.1062 18.2109 40.1062 18.1586C40.1062 18.2109 40.0011 18.3161 39.9489 18.3161L40.054 18.2633L38.4811 18.8402C38.4811 18.8925 38.4811 18.8402 38.4288 18.8402C38.427 18.8129 38.4153 18.7872 38.396 18.7679C38.3767 18.7485 38.351 18.7369 38.3237 18.735C38.3237 18.6822 38.2714 18.6299 38.3237 18.6299L39.1626 17.3192C39.2154 17.2669 39.3201 17.2141 39.3724 17.2141C39.3195 17.2141 39.1103 17.0566 39.0052 17.0043C39.058 17.0043 39.058 17.1617 39.0052 17.2141L38.1662 18.5248H38.0616C38.0616 18.5248 37.9565 18.4725 37.9042 18.4725C37.9042 18.4725 37.8514 18.4725 37.8514 18.4197L37.7991 16.8997C37.7991 16.7946 37.7991 16.69 37.9042 16.69H37.4847C37.5375 16.69 37.5898 16.8474 37.5898 16.8997L37.6427 18.4197C37.6427 18.4725 37.5898 18.4725 37.5898 18.4725C37.5898 18.4725 37.4847 18.5248 37.4324 18.5776C37.4324 18.5776 37.3801 18.5776 37.3801 18.5248L36.3842 17.3192C36.3314 17.2669 36.3314 17.1617 36.3314 17.1094C36.2791 17.1623 36.0694 17.3192 36.0171 17.3715C36.0694 17.3715 36.1745 17.4243 36.2268 17.4766L37.2227 18.6822V18.735C37.1699 18.735 37.1175 18.8402 37.1175 18.8925C37.1175 18.8925 37.0652 18.9448 37.0124 18.9448L35.5448 18.5253C35.4396 18.473 35.3873 18.4202 35.3873 18.3679C35.3873 18.4202 35.2822 18.6822 35.2822 18.735C35.2822 18.735 35.4396 18.6822 35.492 18.735L36.9596 19.1022C37.0124 19.1022 37.0124 19.1545 37.0124 19.1545V19.4166L35.5448 20.0458C35.492 20.0458 35.3873 20.0981 35.3873 20.0458C35.3873 20.0981 35.4396 20.3078 35.492 20.4129C35.492 20.3601 35.597 20.2555 35.6494 20.2555L37.0652 19.6263C37.1175 19.6263 37.1175 19.6791 37.1175 19.6791C37.1699 19.6791 37.2227 19.7314 37.2227 19.7837C37.275 19.7837 37.275 19.8365 37.275 19.8365L36.3837 21.1473C36.3309 21.2001 36.2786 21.2519 36.2263 21.2519C36.2786 21.3047 36.4883 21.4616 36.5406 21.4616C36.4878 21.4616 36.5406 21.3042 36.5406 21.2519L37.4319 19.994C37.4319 19.9412 37.4842 19.9412 37.4842 19.9412C37.537 19.994 37.5893 19.994 37.6416 19.994C37.6939 19.994 37.6939 19.994 37.6939 20.0463L37.7991 21.6191C37.7991 21.6719 37.7463 21.7765 37.6939 21.7765H38.1134C38.0083 21.7765 38.0083 21.6719 38.0083 21.5668L37.9037 20.0463C37.9037 19.994 37.956 19.994 37.956 19.994C38.0083 19.994 38.1134 19.9412 38.1657 19.8889C38.1657 19.8889 38.2185 19.8889 38.2185 19.9412L39.2667 21.095C39.2667 21.1473 39.319 21.2519 39.319 21.3047L39.5812 21.0427C39.5294 21.0955 39.4247 20.9904 39.4247 20.9904ZM24.2209 16.8484C25.6886 16.8484 27.1568 17.0058 27.9957 17.2679C28.1003 17.2679 28.1003 17.3725 27.9957 17.4253C27.1044 17.6351 25.6363 17.792 24.2732 17.792C22.9102 17.8448 21.442 17.792 20.4985 17.5822C20.3939 17.5822 20.3939 17.4771 20.4985 17.4771C21.3379 17.1633 22.7533 16.9012 24.2209 16.8484V16.5864C22.6482 16.6392 21.0754 17.0058 19.7646 17.4776C19.6072 17.5299 19.6072 17.6351 19.7646 17.6351C21.2328 18.0022 22.7533 18.0545 24.2732 18.0022C25.7414 17.9494 27.3142 17.8448 28.7295 17.4253C28.9393 17.3725 28.887 17.2679 28.7818 17.2679C27.3034 16.8172 25.7665 16.5879 24.2209 16.5864V16.8484Z" fill="#121314"/>
<path fill-rule="evenodd" clip-rule="evenodd" d="M39.7919 15.9049C39.4247 16.01 38.7955 16.2192 38.4811 16.2192C38.2191 16.2192 36.9088 16.1669 36.0171 16.2192C34.8109 16.2715 34.7063 16.4289 34.654 16.3243C34.392 15.9048 34.1822 15.2756 33.7628 14.9085C31.2987 15.3279 28.887 14.9613 26.6855 14.1746V13.8598C26.8429 13.9126 26.9476 13.9126 27.0521 13.9126C26.6855 13.3885 26.0563 13.2306 25.6891 12.6542C25.4794 12.4967 25.4271 12.1824 25.2173 12.025C25.2696 12.6019 24.7978 13.0213 24.7455 13.4926C25.0599 13.5977 25.4794 13.5977 25.6368 13.5454C25.8465 13.4926 26.1086 13.5454 26.2137 13.7029C26.3711 13.7552 26.4757 13.8598 26.6855 13.8598V14.1746C26.4229 14.1218 26.3711 14.07 26.1614 13.9654C25.8993 14.0705 25.6896 14.0177 25.5845 13.9131C25.5317 13.8603 25.0076 13.8603 24.7978 13.8603C24.1163 13.8603 23.3825 14.1223 23.0153 14.6992C22.8579 15.0136 22.9102 15.3808 23.0676 15.6428C23.1728 15.8002 23.6445 16.4818 23.9589 16.691L23.5394 16.7961C22.9102 16.2192 22.4384 15.6951 22.5435 15.0136C22.8584 13.5459 24.2209 13.7552 24.5881 13.1265C24.8501 12.5496 24.9548 10.8722 24.6404 10.4004C23.7492 10.0332 22.6487 9.56142 22.4384 8.51273C22.3861 8.25067 22.4912 7.93582 22.7533 7.88351C23.2246 7.77889 23.5394 8.04096 23.9066 8.1984C24.064 8.09327 23.7492 7.72658 24.1163 7.72658C24.5881 7.72658 24.9025 8.67017 25.0599 8.723L25.0076 9.08964C24.6932 8.98502 23.5394 8.3558 23.4348 8.30349C23.2251 8.1984 22.963 8.04096 22.8056 8.25067C22.5958 8.51273 22.8584 8.82758 23.0153 9.08964C25.4794 11.6583 29.5685 8.9322 32.2423 10.767C32.2946 10.6096 32.2423 10.5573 32.1371 10.505C30.3023 8.77527 27.3665 9.66655 25.0076 9.08964L25.0599 8.723C27.9957 9.4568 31.8756 8.25118 33.3956 11.6065C34.3915 13.0224 35.4402 15.2761 37.5893 15.329C39.3195 15.3813 40.4728 14.6998 41.3118 13.4413C42.4651 11.3445 43.1468 8.93271 45.1913 7.51738C45.4009 7.41225 45.5056 7.51738 45.4009 7.56969C44.4049 8.56556 43.5133 9.87682 43.0416 10.9778C43.8276 13.9659 45.5578 13.3367 45.9773 13.2844C45.8722 12.1834 45.9773 8.93323 48.3366 8.1466C49.0214 7.61912 49.8367 7.28695 50.6951 7.18534C51.5535 7.08376 52.4233 7.21657 53.2125 7.56969C51.3775 9.29991 50.2768 11.7639 49.9095 13.4936L47.8649 14.0705C48.0223 13.7557 48.0223 13.2316 47.9701 12.6552C47.7605 12.7598 47.5506 12.9172 47.0789 13.1793C46.8689 13.2316 47.0259 12.9172 47.0259 12.9172C47.0259 12.8126 47.5502 12.6029 47.9697 12.3408C47.8123 11.1347 47.7076 9.56193 48.7035 8.56607C46.6594 9.2476 47.2359 13.5464 47.4454 14.071C46.8685 14.3331 46.0825 14.3331 46.0825 14.3331L45.9773 13.5988C45.0861 13.9136 43.5655 13.7039 42.8842 11.3445C42.1508 12.8644 41.5217 15.2756 39.7919 15.9049ZM71.772 9.50911C71.6668 9.40397 71.6135 9.3517 71.5095 9.3517C71.4561 9.29939 71.5095 9.24657 71.5617 9.24657C71.6142 9.19426 71.7194 9.24657 71.772 9.3517C71.8242 9.40397 71.8242 9.50911 71.772 9.50911Z" fill="#121314"/>
<path fill-rule="evenodd" clip-rule="evenodd" d="M24.8501 19.6273L25.9506 20.8857C26.0558 20.9909 26.0558 21.1478 26.0035 21.2006C26.1609 21.1478 26.3706 20.8857 26.4752 20.7812C26.4224 20.8334 26.2132 20.8335 26.1609 20.7283L25.0076 19.4699V19.3653L25.0599 19.3125C25.0599 19.2601 25.1122 19.2601 25.1122 19.2601L26.7373 19.8371C26.8947 19.9417 26.947 20.0468 26.947 20.0991C26.9998 19.9945 27.1044 19.6801 27.1568 19.575C27.1039 19.6279 26.947 19.6801 26.8424 19.6279L25.2173 19.0509C25.165 19.0509 25.165 19.0509 25.165 18.9986V18.8935C25.165 18.8412 25.2173 18.8412 25.2173 18.8412L26.8947 18.5791C27.1044 18.5263 27.2091 18.6314 27.2091 18.6838C27.2091 18.5791 27.1568 18.212 27.1568 18.1068C27.1568 18.1597 27.0516 18.3166 26.8424 18.3689L25.2173 18.6309C25.165 18.6309 25.165 18.5786 25.165 18.5786C25.1122 18.5258 25.1122 18.4735 25.0599 18.4212V18.3689L26.3706 17.2684C26.5281 17.1633 26.685 17.1633 26.7373 17.2156C26.6327 17.1105 26.4229 16.8484 26.3183 16.7438C26.3712 16.7961 26.3183 16.9535 26.2132 17.1105L24.9548 18.1592C24.9019 18.2115 24.9019 18.2115 24.9019 18.1592C24.8496 18.1592 24.7973 18.1592 24.745 18.1063C24.745 18.1063 24.6927 18.054 24.745 18.054L25.3219 16.4289C25.3415 16.3729 25.3764 16.3235 25.4228 16.2864C25.4692 16.2493 25.525 16.226 25.584 16.2192C25.4789 16.1669 25.1122 16.0095 25.0071 16.0095C25.0594 16.0095 25.1645 16.2192 25.1117 16.3761L24.5348 17.9489C24.5348 18.0017 24.4825 18.0017 24.4825 18.0017H24.325L24.2722 17.9489L23.9579 16.2715C23.9579 16.0618 24.063 15.9572 24.063 15.9572C23.9579 15.9572 23.6435 16.01 23.4861 16.0623C23.5384 16.0623 23.6958 16.1674 23.7481 16.3243L24.063 17.9494C24.063 18.0022 24.063 18.0022 24.0102 18.0545C23.9579 18.0545 23.9056 18.1068 23.8527 18.1068H23.8004L22.6487 16.8484C22.5435 16.691 22.5435 16.5341 22.5964 16.5341C22.4912 16.5864 22.2292 16.7961 22.1769 16.9012C22.2297 16.9012 22.3866 16.9012 22.4917 17.0058L23.645 18.2643V18.3171L23.5399 18.4217H23.4876L21.9148 17.8453C21.7574 17.7925 21.6528 17.6356 21.7051 17.5833C21.6 17.7407 21.5477 18.055 21.4954 18.1602C21.5477 18.1074 21.7051 18.055 21.862 18.1074L23.4348 18.6314V18.8935L21.7574 19.2078C21.6 19.2078 21.4431 19.1032 21.4431 19.0504C21.4431 19.2078 21.4959 19.5745 21.5482 19.6797C21.5482 19.6268 21.6005 19.4699 21.8102 19.4176L23.4353 19.1033C23.4353 19.1033 23.4881 19.1033 23.4881 19.1555C23.4881 19.2078 23.4881 19.2078 23.5404 19.2607V19.313L22.2297 20.3611C22.0723 20.5186 21.9148 20.4663 21.9148 20.414C21.9148 20.5714 22.1769 20.8335 22.2297 20.8857C22.2297 20.8335 22.2297 20.676 22.3348 20.5714L23.6979 19.5232C23.6979 19.4704 23.6979 19.4704 23.7502 19.5232L23.8553 19.6279C23.9081 19.6279 23.9081 19.6279 23.9081 19.6807L23.3312 21.2529C23.2784 21.4104 23.1215 21.5155 23.0692 21.4627C23.1743 21.5155 23.4886 21.6724 23.6461 21.6724C23.5409 21.6724 23.4887 21.515 23.5409 21.3581L24.1179 19.733C24.1179 19.733 24.1179 19.6807 24.1707 19.6807C24.223 19.7329 24.2753 19.733 24.3281 19.733C24.3281 19.733 24.3804 19.733 24.3804 19.7853L24.6953 21.4104C24.6953 21.6201 24.5901 21.7247 24.5379 21.777C24.6953 21.777 25.0096 21.6724 25.1148 21.6196C25.0625 21.6724 24.905 21.515 24.905 21.4099L24.5907 19.7324V19.6802C24.643 19.6802 24.6958 19.6273 24.7481 19.6273C24.7978 19.5745 24.7978 19.5745 24.8501 19.6273ZM71.0378 9.71835C70.9844 9.66604 71.0378 9.61373 71.0378 9.5609C71.09 9.40346 71.1418 9.40346 71.1418 9.24657C70.8804 9.03682 70.8274 8.61735 70.9844 8.51273C71.1418 8.35529 71.6664 8.56504 71.6664 8.56504C72.1381 8.19836 72.2955 7.93582 72.5576 7.77889C72.9242 7.77889 73.658 8.46042 73.658 8.87989C73.5532 9.03733 73.2907 9.29939 72.872 9.82348C73.0293 10.1901 73.0293 10.4527 72.7668 10.6624C72.7146 10.6624 72.6094 10.6624 72.5043 10.5573C72.5576 11.0814 73.1337 11.3957 73.3437 11.8157C73.3437 12.6547 74.2353 13.7029 73.2389 14.3844C73.0293 14.4895 72.8194 14.6464 72.715 14.8562C72.8724 15.6951 73.1871 16.5864 73.3445 17.4776L72.3481 17.5299C72.2437 17.8448 71.9294 18.4212 72.0338 18.7361C72.0338 18.7361 71.9812 18.6832 72.0871 18.7361C72.2445 18.9458 72.2963 20.676 72.2445 20.833C72.2445 21.0427 72.4019 21.0427 72.2967 21.4099C72.1915 21.4621 71.7732 21.7242 71.7198 21.8816C71.4573 22.1437 70.7242 22.1965 70.7242 22.0914C70.7242 21.8293 71.2481 21.5144 71.3537 21.2001C71.4577 19.9417 71.3537 18.6832 70.6716 17.6874C70.4099 17.5299 70.2 17.9494 70.0422 18.1592C70.3051 18.9453 70.7768 19.7842 70.7242 20.6755C70.7242 20.9375 71.0386 21.3047 70.882 21.6714L70.0422 22.0908H67.0013C66.8973 21.9334 66.6869 21.776 66.7399 21.5668H69.4649C69.4649 21.4616 69.7275 21.5144 69.9896 21.095C69.9896 19.8365 68.6785 18.0017 68.8892 17.3725C69.1506 16.5859 69.5183 15.9572 69.9366 14.9085L70.147 14.8562C69.6753 16.4289 68.9932 17.2156 69.0984 17.6874C69.1506 17.9494 69.2558 18.1591 69.4127 18.4735L69.5179 18.7879C69.5701 18.9453 69.7271 19.3119 69.8322 19.4171C69.9896 19.4171 70.0948 19.3119 70.1988 19.2596C70.1988 19.0499 70.0414 18.7879 69.9362 18.6304L69.5179 18.7879L69.4127 18.4735C69.7271 18.4735 69.9362 18.2638 69.6753 18.1063C70.4095 17.7397 69.5179 17.8443 69.7793 17.6874C70.1988 17.4776 70.4095 16.691 70.4613 16.2192C70.4613 16.1141 70.5135 16.0618 70.6187 16.0618C70.933 16.9007 70.933 18.0017 71.4573 18.7879V19.0499C71.4051 19.2596 71.4573 19.5217 71.5625 19.6791C72.0342 19.7314 71.982 19.6263 71.8768 19.0499C71.7724 19.0499 71.5625 18.9976 71.4573 19.0499V18.7879C71.5107 18.7355 71.7198 18.7879 71.7724 18.7355C71.6143 18.4735 71.6143 18.2638 71.6143 18.0017C71.6143 17.8443 71.7194 17.5299 71.8242 18.2115C71.982 18.2638 72.2437 17.0053 72.2963 16.5864C71.2999 16.7961 72.2963 15.6428 71.5617 15.5905L71.9294 14.9613C71.9294 14.7515 71.772 14.5941 71.5099 14.6992L71.2999 14.4367C71.1422 14.3844 70.9856 14.1223 70.776 13.9649C70.6187 14.1223 70.3569 14.4367 70.3043 14.6464C70.2521 14.6992 70.4095 14.751 70.4617 14.6992C70.6195 14.5418 70.7242 14.8562 70.9856 14.8039C71.0904 14.6992 71.4051 14.6464 71.2999 14.4367L71.5099 14.6992C71.2999 14.8039 71.2999 15.1705 71.2999 15.4331C70.933 16.1146 71.0904 15.0664 70.6705 15.0664C70.4091 15.2238 70.3039 14.8039 70.147 14.8562L69.9366 14.9085C69.9366 14.5418 69.99 14.1228 69.9366 13.7034C70.2521 11.9209 70.6187 11.9732 70.6712 11.4491C70.6712 11.2393 71.4573 10.8199 71.4055 10.6101C71.4577 10.6101 71.5628 10.7675 71.5628 10.8199C71.5107 11.0819 70.986 11.0819 71.0394 11.6583C71.3537 11.0814 72.2453 11.1342 72.2971 10.4527C72.1397 10.0332 72.5062 10.2953 72.5062 9.87579C72.4023 9.77066 72.0879 9.45628 72.0345 9.29888C71.9823 9.24606 72.1919 8.93168 71.4577 8.93168C71.4055 8.98451 71.3537 9.29888 71.2485 9.45577C71.1963 9.50859 71.0911 9.61321 71.1433 9.66552C71.1433 9.71783 71.2485 9.77014 71.2485 9.97986C71.1963 10.1896 71.2485 10.2947 71.3537 10.3994C71.7732 10.6091 72.0879 10.3994 71.615 10.6619C71.615 10.7142 71.615 10.767 71.5628 10.8199C71.5628 10.767 71.4055 10.5573 71.3537 10.5045C71.3003 10.5045 71.0394 10.3471 71.0912 10.1378C71.1418 9.92857 71.1418 9.82399 71.0378 9.71835ZM56.9343 7.72658C56.9877 8.09378 56.7769 8.3558 56.7769 8.723C57.1447 9.61424 56.7769 10.2958 56.8821 11.1347C56.4626 10.8727 56.3586 10.1912 56.2013 9.45731C56.0961 8.82809 56.2535 8.61838 56.3053 7.93685L56.9343 7.72658ZM55.834 7.98865C55.7818 9.08913 55.6248 9.61373 56.4108 11.3439C54.4185 12.1824 52.793 12.7593 50.4345 13.4408C50.6963 11.7634 52.3217 8.56504 53.685 7.67376C54.838 7.98865 55.834 7.98865 55.834 7.98865Z" fill="#121314"/>
<path fill-rule="evenodd" clip-rule="evenodd" d="M50.6955 20.3088C50.172 20.4663 50.172 20.7806 50.4863 21.0955C50.6955 21.2524 50.9058 21.515 50.9058 21.5673H47.5506C47.5506 21.7247 47.708 21.8293 47.8127 22.0914H66.371C66.4762 21.8293 66.1619 21.5144 66.0567 21.2001C64.7456 20.7283 64.7456 19.5227 64.6938 18.1592C64.6938 18.1063 64.5886 17.9494 64.5886 17.6874C64.4313 17.4776 63.5408 15.3279 63.9595 13.5977L64.2739 13.0213C64.5364 12.6542 64.2213 12.4444 64.4312 12.025L68.3112 11.2911C68.3634 11.2383 68.3634 11.0814 68.259 11.0291C68.3112 11.0291 68.259 10.9768 68.259 11.0291L64.4842 11.7106C64.6934 10.767 63.8548 10.4522 64.2213 9.66604C64.7452 10.2424 66.1615 11.2383 66.8957 11.3957L67.263 11.3439C66.3192 10.9245 64.642 9.92806 63.6986 8.61787C63.5934 8.61787 63.4882 8.51273 63.3843 8.46042C63.3843 8.56504 63.6456 8.87989 63.5934 8.9322C63.5934 8.9322 62.964 9.35167 61.8102 8.82707C61.4437 9.5609 57.3546 11.3957 57.3546 11.3957C57.512 12.5496 58.0367 13.2834 58.6123 13.9126C58.6657 14.0172 58.455 13.8075 58.6123 13.9126C59.4517 14.5941 60.4473 14.9085 61.5493 15.1182C61.7584 15.7474 62.5445 17.792 62.597 18.1063C62.7022 18.4207 62.8596 18.4207 62.8596 18.4207C62.9648 18.5258 63.3313 19.2073 63.3313 19.4694L63.4365 20.5704C63.4886 20.8324 63.803 20.6227 63.856 20.8848L63.6986 21.5662H64.4846C64.0651 21.1996 64.3273 20.5704 63.8026 20.3078C63.7504 19.6786 63.6986 19.2068 63.4361 18.9448C63.2265 18.3156 62.5445 16.6382 62.1246 15.1177L62.3871 14.7505C61.2334 15.0654 60.3429 14.6459 59.2944 14.069C58.5083 13.7018 58.98 14.0162 59.241 13.8593C60.4999 14.4362 61.1294 14.2787 62.0724 14.1741C62.1775 14.3316 62.3871 14.4885 62.3871 14.7505L62.1246 15.1177C62.3871 14.8557 62.5959 15.0126 62.7532 15.7469C62.9636 16.3761 63.1727 16.8474 63.3301 17.372C63.5404 17.8961 63.6978 18.5781 63.8548 18.9448C63.8548 18.9448 64.0121 18.9448 64.1165 19.1545C64.4842 20.3078 64.5882 20.4652 64.536 20.9893C64.6408 21.4088 65.2181 21.0422 65.1651 21.5662H51.3771C51.5863 20.7273 51.1146 19.9935 51.3771 19.2068C50.8525 18.3679 49.5425 17.7392 49.7517 16.5854C50.3808 15.6941 52.4257 14.8028 51.954 13.7541C53.8412 12.8106 54.785 14.3834 56.5156 14.2259C57.1447 14.2259 57.8259 14.1208 58.4028 13.9639C57.6681 13.387 57.0395 12.4962 56.673 11.7096C53.0034 13.2295 49.4378 14.4357 45.5056 15.2223L45.1913 15.1172C44.8244 15.1695 38.8478 16.5325 39.0575 16.7946C36.8032 16.952 34.1817 17.8956 33.6053 18.2099C33.3433 18.3674 33.2905 18.472 33.6053 18.5771C36.0171 19.2063 38.0088 18.7345 41.7313 17.3187L41.4691 17.1089C41.2596 17.2664 38.2191 18.3151 37.0129 18.472C35.7545 18.6294 34.6535 18.5771 34.1294 18.4192C33.972 18.3668 33.972 18.3668 34.0766 18.3145C36.436 17.371 40.997 16.532 41.6261 17.3187C41.9926 17.4238 42.2556 17.633 42.4651 17.8956C42.6747 18.1581 43.0942 18.053 43.4085 18.0007C43.8276 17.8956 43.8806 17.5289 43.8806 17.1617L43.4085 17.1089C43.199 17.1089 42.3599 17.2141 42.2556 17.3187C41.9408 17.0566 41.6261 16.7946 41.2066 16.6895C42.0456 16.3228 43.4085 16.0079 44.1423 15.9556C43.4611 16.4274 43.7758 17.0038 43.4085 17.1089L43.8806 17.1617C43.8806 16.952 43.8806 16.7946 43.9858 16.69C44.4575 15.5367 46.4494 15.3792 47.4454 15.1172C47.4454 15.1172 46.9215 15.7987 46.5542 15.9561C46.4494 17.5812 45.8726 18.9971 45.7674 20.6222C46.2395 20.6222 46.2395 21.1463 46.3447 21.4611C46.1869 21.7232 45.9773 21.4611 45.7674 21.5139C45.0339 21.1468 45.9251 20.5181 45.3483 19.9935C45.663 18.6827 46.1347 17.372 46.1347 16.009C45.9251 16.009 45.8726 16.2187 45.7674 16.3756C45.61 17.6863 45.2435 18.892 44.9292 20.0976C45.0339 20.2027 45.2965 20.3073 45.2965 20.517C44.877 20.7791 45.2965 21.2509 45.1387 21.5652H40.3684L39.8963 22.0893H47.1311L47.1833 21.8273C46.1351 20.674 46.502 18.9961 47.0259 17.7381L48.2844 16.0608C49.333 15.6413 49.9624 14.3834 51.0628 13.9639C51.0628 14.5408 50.3808 14.75 50.0142 15.0649C49.5947 15.9561 48.3884 16.0608 48.2314 17.0571C48.7027 17.5812 49.3856 17.9484 49.9624 18.4202C50.5381 18.7873 50.3808 19.5735 50.8007 19.9406C50.9066 20.0468 50.8007 20.2566 50.6955 20.3088Z" fill="#121314"/>
<path fill-rule="evenodd" clip-rule="evenodd" d="M58.7175 1.38316C58.5083 1.69751 58.0884 1.90725 58.351 2.48416C57.8263 2.79902 57.9833 3.27081 58.1406 3.53285C57.8781 3.7949 57.7211 4.31949 58.0885 4.63387C57.6689 5.10564 58.1936 5.52511 58.351 5.68204C58.1406 6.15381 58.351 6.52097 58.351 6.52097C58.2976 6.83534 57.7207 7.35994 57.5116 7.51687C57.1968 8.30349 57.302 9.92857 57.3538 11.0296C58.8223 10.2958 60.29 9.61424 61.4437 8.61786C60.4473 7.93634 59.6605 6.31126 58.5601 6.41587C58.455 5.26257 57.9833 3.21799 59.6087 1.12112C59.8179 1.01599 60.1322 0.963684 60.29 0.858558C59.6087 0.753947 58.7175 1.17291 58.0885 0.806253C58.0885 0.806767 58.4032 1.33086 58.7175 1.38316Z" fill="#121314"/>
<path fill-rule="evenodd" clip-rule="evenodd" d="M62.2301 0.858558C62.2301 0.911378 62.4393 1.01599 62.4393 1.01599C62.4393 1.01599 62.6496 0.963684 62.6496 0.911378C62.6496 0.859072 62.7022 0.701641 62.6496 0.649335C62.5963 0.649335 62.4393 0.59703 62.3353 0.59703C62.3353 0.596516 62.2301 0.806767 62.2301 0.858558L62.125 0.963688L61.3907 0.439598L61.4959 0.33447C61.4959 0.33447 61.8102 0.019607 61.9676 0.019607C62.125 -0.0326995 62.964 0.0196066 63.1739 0.177039C63.3313 0.33447 63.4365 0.439084 63.6456 0.806253C64.2225 1.22522 65.1663 1.22522 65.7431 1.697C65.638 1.85443 65.9005 2.11648 65.6906 2.22109C65.5332 2.27391 65.1663 2.16878 65.1137 2.27391L65.0615 2.58826L64.8512 2.53544C64.8512 2.53544 64.9563 2.16878 64.8512 2.16878C64.746 2.11648 64.5368 2.01135 64.4316 2.06366C64.3794 2.11648 64.4316 2.16878 64.485 2.2734C64.485 2.37801 64.7468 2.43083 64.9045 2.37801L65.1137 2.43083L65.3762 2.48313C65.271 2.74518 65.2189 2.84979 64.8515 2.74518C64.7468 3.00723 65.3236 3.21696 65.3762 3.32209C65.3228 3.42721 65.2189 3.53183 64.8515 3.32209C64.8515 3.32209 63.3313 4.79024 62.4401 5.20975C61.4963 5.62921 62.3875 4.99999 62.3875 4.99999C62.807 4.84255 64.642 3.26978 64.642 3.11286C64.5886 3.00774 64.4846 2.79851 64.4846 2.64108C64.2221 2.53595 63.6986 2.69339 63.4883 2.85031C63.5934 3.32209 64.4316 5.68152 63.8026 9.24657L63.6986 9.14195C64.2743 5.68152 63.3309 2.90313 63.3309 2.90313C62.807 3.11286 62.4393 2.95594 62.1779 3.00825C62.0728 5.15744 63.8026 5.47228 63.1731 8.30349C61.3385 7.98916 60.0282 5.73435 58.9796 5.94406C58.9263 5.5769 58.5601 4.9482 58.9263 4.73797C58.8223 4.4236 58.7171 4.00413 59.1888 3.74208C59.0314 3.3226 58.9797 2.95594 59.4513 2.64159C59.3462 2.37904 59.398 1.80264 59.9748 1.69751C60.0282 1.22573 60.2374 0.858558 60.6569 0.701641C60.1852 0.4919 60.08 0.0201194 60.08 0.0201194C60.4995 0.282677 60.8664 0.439082 61.4959 0.33447L62.2301 0.858558ZM44.4049 40.0734L44.3523 37.1377C44.3523 36.2464 43.7758 35.3018 42.989 34.7777C42.8316 34.7254 42.5699 34.6203 42.3599 34.6203C42.5699 34.6203 42.8316 34.6203 43.0942 34.5152C43.8806 34.1485 44.8244 33.1521 44.8244 31.4224C44.8244 30.1111 44.3005 29.1158 43.3563 28.4338C42.4651 27.8045 41.4691 27.6477 40.4206 27.6477H32.3474V29.745H34.1822V40.0734H32.3474V42.1176H38.1144V40.0734H36.2791V35.5121H40.2636C41.6265 35.5644 42.1508 36.4556 42.1508 37.1894L42.3082 42.1172H46.2399V40.073L44.4049 40.0734ZM40.6827 33.5203H36.2791V29.7455H40.421C40.8927 29.7455 41.417 29.7455 41.8365 29.903C42.3603 30.1655 42.8328 30.7424 42.8328 31.6327C42.8324 32.7342 41.8365 33.5203 40.6827 33.5203ZM31.613 47.256C33.5007 47.256 34.3392 48.3046 34.3392 49.6149C34.3392 50.926 33.4479 51.9216 31.4556 51.9216H30.0926V55.5394H28.887V47.2564L31.613 47.256ZM30.0926 50.8738H31.5607C32.452 50.8738 33.0807 50.4009 33.0807 49.5623C33.0807 48.9332 32.7141 48.3046 31.6125 48.3046H30.0921L30.0926 50.8738ZM43.7236 55.5394H42.4129L41.3648 53.0753H37.7473L36.7514 55.5394H35.4407L39.1103 47.203H39.9493L43.7236 55.5394ZM38.2191 51.9742H40.8927L39.4775 48.7229L38.2191 51.9742ZM57.5116 55.5394H56.3056V47.256H57.5116V55.5394ZM66.1627 49.038C65.3762 48.4086 64.642 48.1994 64.0133 48.1994C63.2273 48.1994 62.597 48.5659 62.597 49.1432C62.597 50.7686 66.477 50.7152 66.477 53.3896C66.477 54.6474 65.428 55.5912 63.9599 55.5912C63.0166 55.5912 62.1779 55.382 61.4441 54.8577V53.3375C62.125 54.1235 62.9648 54.5434 63.856 54.5434C64.8512 54.5434 65.3228 53.9665 65.3228 53.4948C65.3228 51.8172 61.3907 51.6064 61.3907 49.3531C61.3907 47.9902 62.4923 47.1508 64.1169 47.1508C64.8511 47.1508 65.4798 47.3082 66.1619 47.7277L66.1627 49.038ZM52.4265 54.5434C52.2691 54.333 52.1122 54.1239 51.9548 53.8613C51.3254 52.8128 50.8007 52.0781 50.0146 51.6072C50.958 51.2403 51.4827 50.5065 51.4827 49.5631C51.4827 48.1476 50.3812 47.2564 48.5992 47.2564H46.4494V55.5394H47.7076V51.9216H48.2314C48.8605 51.9216 49.3856 52.1315 50.4859 53.8096L51.6397 55.5394H53.0552L52.4265 54.5434ZM48.4944 50.8738H47.7076V48.2516H48.4944C49.7003 48.2516 50.1716 48.7237 50.1716 49.5105C50.2238 50.1918 49.8577 50.8738 48.4944 50.8738Z" fill="#121314"/>
</svg>
