<svg width="97" height="16" viewBox="0 0 97 16" fill="none" xmlns="http://www.w3.org/2000/svg">
<path fill-rule="evenodd" clip-rule="evenodd" d="M2.72758 15.2408H1.37927C1.26677 15.2408 0.985535 15.2408 0.985535 15.072C0.985535 14.9601 1.04178 14.9033 1.21053 14.8471C2.44689 14.4533 2.72758 13.7794 2.72758 12.8249V2.76632C2.72758 1.8669 2.44634 1.19248 1.21053 0.743039C1.04178 0.743039 0.985535 0.630545 0.985535 0.574297C0.985535 0.349852 1.26677 0.405554 1.37927 0.405554H12.5049C15.0333 0.405554 17.1128 2.42829 17.1128 4.95671C17.1128 7.48567 15.0333 9.50786 12.5049 9.50786H6.88554V12.9357C6.94234 13.8346 7.22305 14.4522 8.40314 14.846C8.5719 14.9028 8.6276 14.959 8.6276 15.0709C8.6276 15.2397 8.34689 15.2397 8.23442 15.2397H2.72758V15.2408ZM88.3074 9.79022L85.6662 5.29477L85.3845 4.84475L83.0253 9.79022H88.3074ZM85.6662 0.3504H87.4645L94.9938 13.6123C95.2186 13.9482 95.4994 14.2862 95.8375 14.4538C96.118 14.6789 96.4552 14.7357 96.7356 14.8476C96.8489 14.9044 96.9609 14.9606 96.9609 15.0726C96.9609 15.2413 96.6801 15.2413 96.5668 15.2413H89.8805C89.7685 15.2413 89.4308 15.2413 89.4308 15.0726C89.4308 14.9606 89.5436 14.9038 89.6565 14.8476C89.9937 14.7357 90.2173 14.5669 90.3293 14.23C90.4426 13.8362 90.3293 13.6123 90.0489 13.1055C89.667 12.2946 89.2738 11.4893 88.8691 10.6896H82.5756L82.5196 10.8016C82.4628 11.0266 82.014 11.813 81.6759 12.6561C81.227 13.555 81.0586 13.7794 81.1702 14.2294C81.227 14.5663 81.5074 14.7351 81.8443 14.8471C81.9571 14.9038 82.014 14.9601 82.014 15.072C82.014 15.2408 81.7323 15.2408 81.6203 15.2408H78.5293C78.4173 15.2408 78.1356 15.2408 78.1356 15.072C78.1356 14.9601 78.1925 14.9033 78.3605 14.8471C78.6426 14.7351 78.9782 14.6783 79.2594 14.4533C79.5967 14.2857 79.8784 13.9476 80.1024 13.6118L80.4961 12.7681L84.7664 3.83394L84.1479 2.76632C83.587 1.8669 83.0245 1.30497 82.4064 0.968031C82.1255 0.79929 81.8443 0.79929 81.5634 0.686793C81.395 0.630546 81.3386 0.574296 81.3946 0.4618C81.3946 0.349305 81.5066 0.405552 81.5634 0.349304H85.6662V0.3504ZM69.0898 15.184C79.4295 15.184 79.3175 0.4061 69.0898 0.4061H60.6051C60.4363 0.4061 60.1559 0.349851 60.1559 0.574843C60.1559 0.63109 60.2679 0.743585 60.3799 0.743585C61.6165 1.13677 61.8978 1.8112 61.9533 2.65437V12.9373C61.8978 13.8362 61.6165 14.4538 60.3799 14.8476C60.2679 14.9044 60.1559 14.9606 60.1559 15.0726C60.1559 15.2413 60.4367 15.2413 60.6051 15.2413H66.0556V15.1845L69.0898 15.184ZM68.8645 1.47372C70.4392 1.47372 71.7314 2.76633 71.7314 4.33908V11.1948C71.7314 12.7681 70.4392 14.0607 68.8645 14.0607H66.0548V1.47372H68.8645ZM50.0969 9.79022L47.4561 5.29477L47.1752 4.84475L44.8156 9.79022H50.0969ZM47.4561 0.3504H49.3108L56.8401 13.6123C57.0089 13.9482 57.2902 14.2862 57.627 14.4538C57.9079 14.6789 58.246 14.7357 58.5828 14.8476C58.6948 14.9044 58.8068 14.9606 58.8068 15.0726C58.8068 15.2413 58.4695 15.2413 58.358 15.2413H51.6721C51.5588 15.2413 51.2784 15.2413 51.2784 15.0726C51.2784 14.9606 51.334 14.9038 51.502 14.8476C51.7841 14.7357 52.0641 14.5669 52.1209 14.23C52.2329 13.8362 52.1209 13.6123 51.8956 13.1055C51.502 12.2629 51.0531 11.476 50.6607 10.6896H44.3651L44.3095 10.8016C44.2531 11.0266 43.8594 11.813 43.4662 12.6561C43.0731 13.555 42.8487 13.7794 42.9612 14.2294C43.0737 14.5663 43.2982 14.7351 43.6354 14.8471C43.7474 14.9038 43.8599 14.9601 43.8599 15.072C43.8599 15.2408 43.5794 15.2408 43.411 15.2408H40.3759C40.2634 15.2408 39.926 15.2408 39.926 15.072C39.926 14.9601 40.0385 14.9033 40.151 14.8471C40.4884 14.7351 40.7691 14.6783 41.1066 14.4533C41.3873 14.2857 41.7248 13.9476 41.893 13.6118L42.2862 12.7681L46.6135 3.83394L45.9954 2.76632C45.4333 1.8669 44.8152 1.30497 44.2531 0.968031C43.9159 0.79929 43.6914 0.79929 43.3537 0.686793C43.2413 0.630546 43.1289 0.574296 43.1857 0.4618C43.2413 0.349305 43.3537 0.405552 43.4106 0.349304H47.4561V0.3504ZM28.9129 10.1839C30.2055 10.6328 31.7788 10.7448 33.0146 10.3527L37.9038 14.5669L38.2969 14.9038C38.3537 14.9606 38.3537 15.0158 38.3537 15.0726C38.3537 15.2413 38.0725 15.2413 37.96 15.2413H32.7907L28.9134 12.0385L25.7663 9.50951V12.9941C25.8231 13.8368 26.16 14.4544 27.3396 14.8482C27.4521 14.9049 27.5083 14.9612 27.5083 15.0731C27.5083 15.2419 27.2271 15.2419 27.1145 15.2419H20.3151C20.1469 15.2419 19.8657 15.2419 19.8657 15.0731C19.8657 14.9612 19.9782 14.9044 20.0901 14.8482C21.439 14.3992 21.6077 13.7248 21.6634 12.6572V2.93452C21.6072 1.92315 21.4385 1.19248 20.0901 0.743039C19.9776 0.743039 19.8657 0.630545 19.8657 0.574297C19.8657 0.349852 20.1469 0.405554 20.3151 0.405554H31.2725C31.8709 0.403026 32.4639 0.519016 33.0172 0.746831C33.5706 0.974646 34.0734 1.30977 34.4965 1.73289C34.9197 2.156 35.2549 2.65871 35.4828 3.21203C35.7106 3.76535 35.8267 4.35831 35.8242 4.95671C35.8268 5.55515 35.7108 6.14812 35.4829 6.70146C35.2551 7.25481 34.9199 7.75759 34.4967 8.1807C34.0735 8.60382 33.5707 8.93894 33.0173 9.16673C32.464 9.39452 31.871 9.51047 31.2725 9.50786H27.7327C27.9015 9.84483 28.2947 9.95784 28.6316 10.1266C28.7441 10.1271 28.8004 10.1839 28.9129 10.1839ZM29.3623 8.44188C30.8231 8.44188 32.0594 6.86803 32.0594 4.84475C32.0594 2.87827 30.8231 1.30497 29.3623 1.30497H25.7657V8.44188H29.3623ZM6.88554 1.30552V8.44243H10.5946C12.1117 8.44243 13.2918 6.86858 13.2918 4.84529C13.2918 2.87882 12.1117 1.30552 10.5946 1.30552H6.88554Z" fill="#121314"/>
</svg>
