<svg width="96" height="51" viewBox="0 0 96 51" fill="none" xmlns="http://www.w3.org/2000/svg">
<path fill-rule="evenodd" clip-rule="evenodd" d="M61.3699 6.33984C60.9508 6.33984 60.5491 6.50626 60.253 6.80245C59.9568 7.09867 59.7904 7.50038 59.7904 7.9193C59.7904 8.46904 60.0596 8.95106 60.4855 9.23412L55.1291 20.7298L56.2481 5.42191C56.6542 5.38752 57.0314 5.19753 57.3006 4.89162C57.5699 4.58575 57.7106 4.1876 57.6936 3.78037C57.6762 3.37313 57.5027 2.98829 57.2085 2.70621C56.9139 2.42413 56.5221 2.26664 56.1144 2.26662C55.6957 2.26662 55.294 2.43302 54.9979 2.72922C54.7017 3.02543 54.5353 3.42717 54.5353 3.84607C54.5353 4.53272 54.973 5.10553 55.5858 5.32346L51.9103 20.2698L50.0915 3.78196C50.4256 3.69432 50.7214 3.49828 50.9321 3.2246C51.1425 2.95092 51.2563 2.61506 51.2559 2.26969C51.2559 1.8508 51.0895 1.44906 50.7933 1.15286C50.4968 0.856652 50.0951 0.690247 49.6764 0.690247C49.2573 0.690247 48.8555 0.856652 48.5594 1.15286C48.2632 1.44906 48.0968 1.8508 48.0968 2.26969C48.0968 3.05788 48.6784 3.69376 49.4336 3.81222L47.9683 19.8754L43.7088 5.37012C43.9638 5.23782 44.1773 5.03799 44.3268 4.79246C44.4758 4.54692 44.5545 4.26513 44.5545 3.97786C44.5545 3.66547 44.4616 3.3601 44.288 3.10036C44.1148 2.84062 43.8681 2.63818 43.5795 2.51864C43.2909 2.39909 42.9734 2.36781 42.6669 2.42876C42.3605 2.4897 42.079 2.64013 41.858 2.86102C41.6373 3.08191 41.4867 3.36334 41.4258 3.66972C41.3649 3.97611 41.3962 4.29368 41.5156 4.58229C41.6354 4.8709 41.8378 5.11758 42.0976 5.29112C42.3573 5.46466 42.6626 5.55729 42.9749 5.55729C42.9975 5.55729 43.022 5.55524 43.0441 5.55421L44.8799 20.7303L38.694 9.68798C38.9994 9.44846 39.206 9.10487 39.2742 8.72276C39.3424 8.3407 39.2676 7.94686 39.064 7.61643C38.8603 7.28601 38.5421 7.04213 38.1702 6.93134C37.7981 6.8206 37.3984 6.85065 37.0472 7.01584C36.696 7.18103 36.4178 7.46974 36.2659 7.82694C36.114 8.18409 36.0989 8.5847 36.2235 8.95229C36.3482 9.31988 36.6038 9.62867 36.9416 9.81981C37.2794 10.0109 37.6758 10.071 38.0551 9.98848L43.2375 25.525C44.4201 29.1383 54.9307 29.2039 56.5071 25.525L61.1873 9.47874C61.2525 9.48697 61.3015 9.49824 61.3687 9.49824C61.7827 9.49092 62.1773 9.32138 62.4675 9.02614C62.7577 8.73087 62.9202 8.33351 62.9202 7.91954C62.9206 7.50556 62.7581 7.10812 62.4683 6.81265C62.1781 6.51722 61.7839 6.34744 61.3699 6.33984ZM49.7424 27.1865C47.064 27.1865 44.893 26.3794 44.893 25.3835C44.893 24.3876 47.064 23.9199 49.7424 23.9199C52.4207 23.9199 54.3075 24.3876 54.3075 25.3835C54.3075 26.3794 52.4203 27.1865 49.7424 27.1865ZM57.356 36.4396H58.9197C59.8683 36.4396 60.2008 36.6535 60.2008 37.4832V47.7046C60.2008 48.5112 59.8683 48.8192 58.9197 48.8192H57.356V50.4715H73.3395V43.6855H71.8279C71.8279 47.0312 70.503 48.7907 68.2722 48.7907H63.7873V43.3533H64.6679C66.115 43.3533 66.9417 43.9947 66.9417 45.18V46.1298H68.6755V38.5832H66.9417V39.4139C66.9417 40.5785 66.0683 41.2882 64.6679 41.2882H63.7873V36.4396H67.9642C71.0261 36.4396 71.6619 38.2026 71.8279 40.8371H73.3395V34.6438H57.356V36.4396ZM50.3252 48.7907H46.5374V37.555C46.5374 36.7248 46.8699 36.4401 47.8188 36.4401H49.2426V34.6838H40.4053V36.4401H41.6397C42.5887 36.4401 42.9212 36.7248 42.9212 37.555V47.7046C42.9212 48.5112 42.5887 48.82 41.6397 48.82H40.4053V50.5122H55.3834V43.5593H53.6757C53.6275 46.2875 53.6464 48.7907 50.3252 48.7907ZM29.1963 34.2012C23.738 34.2012 20.3401 38.4103 20.3212 42.3704C20.2965 47.4958 23.6908 50.723 29.0302 50.723C34.7013 50.723 38.0002 47.5433 38.0002 42.1087C38.0002 38.0816 34.4403 34.2012 29.1963 34.2012ZM29.0774 48.8555C26.2297 48.8555 24.5923 46.3093 24.5923 42.2514C24.5923 38.2883 26.301 36.2422 29.2199 36.2422C32.0198 36.2422 33.6572 38.336 33.6572 42.4175C33.6577 46.4042 31.9967 48.8555 29.0774 48.8555ZM94.3369 36.4396H95.9991V34.6617H87.9645V36.4396H89.0154C89.4104 36.5001 89.6721 36.9047 89.2791 37.2991L87.0456 39.8611L85.2719 37.6929C84.8769 37.2335 84.9433 36.4442 85.6657 36.4442L86.477 36.4391V34.6612H77.3218V36.4391C79.6214 36.5048 80.1955 36.773 81.0258 37.8406L84.7456 42.357L79.687 47.6777C78.7852 48.6982 78.6994 48.7895 77.3222 48.7895V50.4885H85.3371V48.7895H83.4191C82.8505 48.7895 82.7307 48.3767 82.7307 48.0691C82.7307 47.7603 83.1344 47.4045 83.3005 47.1906L86.1251 43.9943L88.9506 47.3574C89.0929 47.5472 89.3293 47.7607 89.3293 47.9984C89.3293 48.3071 89.0688 48.7899 88.5231 48.7899H86.9345V50.4889H95.9999V48.7899C94.5674 48.7899 94.4393 48.7223 93.1543 47.153L88.4247 41.5694L91.6435 38.0873C92.8289 36.8298 93.2931 36.4396 94.3369 36.4396ZM16.552 45.9419V46.7549C16.552 47.7275 15.9838 48.2253 15.5095 48.2253C14.75 48.2253 14.7028 47.3005 14.6551 46.7549V46.0977C14.6551 43.9298 13.67 43.0754 12.4218 42.4183C14.7474 41.8734 16.2905 40.484 16.2905 38.5616C16.2905 36.0699 14.5818 34.6458 11.5449 34.6458H0.059082V36.4401H1.61443C2.56364 36.4401 2.89594 36.6596 2.89594 37.4898V47.6757C2.89594 48.4823 2.56364 48.7907 1.61443 48.7907H0.059082V50.4735H9.00553V48.7907H7.77121C6.82201 48.7907 6.48968 48.4823 6.48968 47.6757V43.141H8.08555C9.79421 43.141 11.046 44.0963 11.1409 45.9L11.2834 47.9825C11.3783 49.8808 12.6598 50.9009 14.9141 50.9009C17.311 50.9009 17.874 49.7384 17.874 47.27V45.9415L16.552 45.9419ZM9.26858 41.0811H6.49174V36.4263H8.95939C11.3327 36.4263 12.1865 37.2135 12.1865 38.7555C12.187 40.3452 11.2619 41.0811 9.26858 41.0811Z" fill="#121314"/>
</svg>
